<?xml version="1.0" encoding="UTF-8"?>
<svg width="336.5" height="120" version="1.1" viewBox="0 0 315.49399 112.54658" xmlns="http://www.w3.org/2000/svg" xmlns:osb="http://www.openswatchbook.org/uri/2009/osb"><defs><linearGradient id="b" gradientTransform="matrix(.001065 -.0006519 -.0001799 -.0001503 522.5 674.6)" osb:paint="solid"><stop style="stop-color:#f3524a" offset="0"/></linearGradient><linearGradient id="a" gradientTransform="matrix(.1335 -3.363 3.722 .2373 195.7 2253)" osb:paint="solid"><stop style="stop-color:#e3dee4" offset="0"/></linearGradient></defs><g transform="translate(-42.25 -310.4)"><g transform="matrix(.8601 .1601 -.1601 .8601 -188.3 -815.8)"><g transform="matrix(1.08 0 0 1.08 53.89 -166.2)"><g style="fill:url(#b)"><path d="m656 1274c-0.4936 0.107-0.9816 0.4071-1.281 0.8438-0.2992 0.4362-0.3929 0.9572-0.3125 1.469a0.6314 0.6314 0 0 0 0 0.031l6.812 36.62c0.1136 0.5276 0.4553 0.9932 0.875 1.281 0.4195 0.2877 0.9313 0.3921 1.438 0.3125a0.6314 0.6314 0 0 0 0.0312 0c0.5316-0.1141 1.034-0.4027 1.344-0.8437 0.2984-0.4247 0.393-0.9671 0.3125-1.469a0.6314 0.6314 0 0 0 0 -0.031l-6.812-36.66c-0.1116-0.5227-0.4427-0.9918-0.875-1.281-0.4569-0.3059-0.9954-0.3615-1.5-0.2812a0.6314 0.6314 0 0 0 -0.0312 0z" style="fill:url(#b)"/><path d="m644.7 1276c-0.4937 0.1068-0.9816 0.4071-1.281 0.8437-0.299 0.4362-0.393 0.9573-0.3125 1.469a0.6314 0.6314 0 0 0 0 0.031l6.812 36.62c0.1136 0.5276 0.4553 0.9933 0.875 1.281 0.4194 0.2877 0.931 0.3924 1.438 0.3124a0.6314 0.6314 0 0 0 0.0312 0c0.5316-0.1141 1.034-0.4026 1.344-0.8437 0.2985-0.4246 0.393-0.967 0.3125-1.469a0.6314 0.6314 0 0 0 0 -0.031l-6.812-36.66c-0.1131-0.5297-0.4673-0.9768-0.875-1.25-0.4326-0.2896-0.9642-0.3977-1.5-0.3124a0.6314 0.6314 0 0 0 -0.0312 0z" style="fill:url(#b)"/><path d="m671.5 1284c-0.5074 0.1086-0.9539 0.3998-1.25 0.8125-0.3036 0.4231-0.4279 0.9712-0.3438 1.5a0.6314 0.6314 0 0 0 0 0.031l4.625 24.84c0.1136 0.5276 0.4553 0.9933 0.875 1.281 0.4194 0.2877 0.931 0.3924 1.438 0.3124a0.6314 0.6314 0 0 0 0.0312 0c0.5316-0.1141 1.034-0.4026 1.344-0.8437 0.2985-0.4246 0.393-0.967 0.3125-1.469a0.6314 0.6314 0 0 0 0 -0.031l-4.625-24.84c-0.1062-0.502-0.3709-1.01-0.8438-1.313-0.4598-0.2941-1.005-0.3699-1.531-0.2812a0.6314 0.6314 0 0 0 -0.0312 0zm2.077-6.899c0.3291 1.768-0.8372 3.468-2.605 3.797s-3.468-0.8373-3.797-2.605c-0.3291-1.768 0.8372-3.468 2.605-3.797s3.468 0.8373 3.797 2.605z" style="fill:url(#b)"/><path d="m599.2 1285c-0.5264 0.1141-0.993 0.4548-1.281 0.875-0.2992 0.4362-0.393 0.9573-0.3125 1.469a0.6314 0.6314 0 0 0 0 0.031l3.875 20.81 0.0937 0.4687 2.844 15.31c3e-3 0.017-3e-3 0.016 0 0.031 0.0286 0.1398 0.0918 0.2429 0.0937 0.25 0.0378 0.1369 0.0669 0.2689 0.125 0.375 0.0612 0.1119 0.1384 0.1853 0.1875 0.25 0.0644 0.086 0.153 0.1823 0.25 0.2812a0.6314 0.6314 0 0 0 0.0937 0.094c0.2407 0.1636 0.5036 0.2582 0.75 0.3125 0.2518 0.055 0.5466 0.091 0.875 0.031l0.1562-0.031a0.6314 0.6314 0 0 0 0.0312 0l0.125-0.031a0.6314 0.6314 0 0 0 0.0312 -0.031c-0.0124 0 0.0178 0 0.0937-0.031 0.029-0.012 0.0582-0.04 0.0937-0.063 0.0483-0.024 0.0791-0.066 0.125-0.094-1.7e-4 2e-4 8e-3 0.022 0.0312 0 0.0183-0.011 0.0134-0.051 0.0312-0.062 9e-3 -0.011 0.0311-0.031 0.0312-0.031 0.3339-0.2309 0.6068-0.5057 0.75-0.875 0.0153-0.04 0.0186-0.085 0.0312-0.125 6e-3 -0.015 0.0262-0.017 0.0312-0.031 0.0248-0.073 0.0585-0.16 0.0625-0.1875 1e-3 -0.01 0.024-0.066 0.0312-0.094a0.6314 0.6314 0 0 0 0 -0.094c3e-3 -0.012-2e-3 -0.019 0-0.031a0.6314 0.6314 0 0 0 0 -0.094c7e-3 -0.095 8e-3 -0.1993 0-0.25l-0.0312-0.1875a0.6314 0.6314 0 0 0 0 -0.031l-2.844-15.31c-2e-3 -0.011 2e-3 -0.02 0-0.031-0.3606-2.312 0.0808-4.195 1.344-5.812 1.272-1.629 3.033-2.654 5.344-3.125h0.0312c2.355-0.3974 4.377-0.093 6.156 0.9687 1.773 1.058 2.853 2.665 3.344 4.969l2.875 15.34c0.1065 0.4947 0.4073 0.9818 0.8438 1.281 0.4361 0.2991 0.9572 0.3929 1.469 0.3125a0.6314 0.6314 0 0 0 0.0312 0c0.5075-0.109 1.007-0.3785 1.312-0.8125 0.2935-0.4176 0.4305-0.9594 0.3438-1.5a0.6314 0.6314 0 0 0 0 -0.031l-2.874-15.34c-0.7125-3.346-2.413-5.936-5.094-7.594-2.671-1.652-5.768-2.165-9.156-1.594a0.6314 0.6314 0 0 0 -0.0312 0c-1.837 0.3569-3.468 1.076-4.906 2.125-1.005 0.7335-1.832 1.623-2.562 2.594l-2.438-13.06c-0.1046-0.4899-0.3952-0.981-0.8438-1.281-0.4489-0.3006-0.9905-0.3984-1.531-0.3125a0.6314 0.6314 0 0 0 -0.0312 0z" style="fill:url(#b)"/><path d="m633.3 1291c-0.5074 0.1086-0.9539 0.3998-1.25 0.8125-0.3036 0.4231-0.4279 0.9712-0.3438 1.5a0.6314 0.6314 0 0 0 0 0.031l4.625 24.84c0.1066 0.4946 0.4073 0.9818 0.8438 1.281 0.4361 0.299 0.957 0.3931 1.469 0.3124a0.6314 0.6314 0 0 0 0.0312 0c0.5382-0.1155 1.019-0.4262 1.312-0.8437 0.2819-0.401 0.4297-0.9334 0.3438-1.469a0.6314 0.6314 0 0 0 0 -0.031l-4.625-24.84c-0.1127-0.533-0.4184-1.021-0.875-1.313-0.4434-0.2836-0.9786-0.369-1.5-0.2812a0.6314 0.6314 0 0 0 -0.0312 0zm2.055-6.898c0.3291 1.768-0.8372 3.468-2.605 3.797s-3.468-0.8373-3.797-2.605c-0.3291-1.768 0.8372-3.468 2.605-3.797s3.468 0.8373 3.797 2.605z" style="fill:url(#b)"/><path d="m585.4 1300c-0.8426 0.01-1.708 0.095-2.562 0.25-4.143 0.8711-7.39 2.94-9.656 6.125-2.267 3.187-3.09 6.869-2.438 10.94a0.6314 0.6314 0 0 0 0 0.031c0.8656 4.084 2.984 7.298 6.25 9.469 3.264 2.169 7.011 2.899 11.19 2.219a0.6314 0.6314 0 0 0 0.0312 0c1.704-0.3275 3.272-0.8928 4.719-1.719 1.438-0.8208 2.704-1.849 3.75-3.031 0.3779-0.4281 0.5876-0.9574 0.5625-1.5-0.0254-0.5487-0.3089-1.046-0.7188-1.406a0.6314 0.6314 0 0 0 -0.0312 -0.031c-0.3999-0.3033-0.8631-0.4172-1.312-0.4063a0.6314 0.6314 0 0 0 -0.0312 0c-0.4801 0.014-0.9779 0.1965-1.375 0.5937a0.6314 0.6314 0 0 0 -0.0312 0.031c-0.8086 0.9045-1.722 1.643-2.781 2.25-1.05 0.602-2.217 1.04-3.469 1.281h-0.0312c-3.149 0.5034-5.856-0.061-8.25-1.656-2.394-1.596-3.89-3.813-4.531-6.812-2e-3 -0.011 2e-3 -0.021 0-0.031-0.4711-2.977 0.1229-5.582 1.781-7.938 1.661-2.359 3.986-3.834 7.125-4.5 1.26-0.2344 2.478-0.2537 3.688-0.062 1.211 0.1916 2.328 0.5812 3.406 1.156a0.6314 0.6314 0 0 0 0.0625 0c0.4762 0.2107 1.018 0.2658 1.5 0.094 0.4798-0.1722 0.844-0.5027 1.094-0.9063a0.6314 0.6314 0 0 0 0.0312 -0.062c0.2462-0.4811 0.3074-1.031 0.1562-1.531-0.1437-0.4752-0.4701-0.8973-0.9375-1.125-1.462-0.7694-3.034-1.273-4.688-1.531-0.829-0.1298-1.657-0.1974-2.5-0.1875z" style="fill:url(#b)"/></g><g transform="translate(5.202 -.9684)" style="fill:url(#a)"><path d="m546.7 1295c-0.5001 0.1134-0.9602 0.4527-1.25 0.875-0.2899 0.4225-0.4171 0.9316-0.3438 1.438a0.6314 0.6314 0 0 0 0 0.031l1.75 9.594-2.781 0.5312c-0.3595 0.075-0.6658 0.1899-0.9375 0.3438-0.2717 0.1538-0.5218 0.3855-0.625 0.7187-0.1202 0.3879-0.1274 0.8032-0.0312 1.219 7e-3 0.032-9e-3 0.062 0 0.094h0.0312c0.0585 0.4168 0.1825 0.8333 0.4375 1.156 0.2183 0.2765 0.5658 0.3928 0.875 0.4376 0.3092 0.045 0.6069 0.028 0.9688-0.031a0.6314 0.6314 0 0 0 0.0312 0l2.812-0.5 3.594 19.41c0.3176 1.528 1.115 2.789 2.312 3.594 1.188 0.7989 2.587 1.068 4.125 0.8125a0.6314 0.6314 0 0 0 0.0312 0c0.5278-0.1203 0.9527-0.4682 1.25-0.875 0.3054-0.4178 0.4779-0.9508 0.4062-1.469a0.6314 0.6314 0 0 0 0 -0.062c-0.118-0.5033-0.4634-0.9462-0.9062-1.25-0.4289-0.2943-0.9433-0.448-1.469-0.375a0.6314 0.6314 0 0 0 -0.0312 0c-0.2121 0.04-0.5324 0.02-0.9688-0.1876-0.3442-0.1641-0.5521-0.4226-0.6875-0.9374v-0.031l-3.625-19.41 2.938-0.5312c0.4999-0.1133 0.9601-0.4523 1.25-0.875 0.29-0.4225 0.4171-0.9316 0.3438-1.438a0.6314 0.6314 0 0 0 0 -0.031c-0.1137-0.4991-0.4525-0.96-0.875-1.25-0.4225-0.2899-0.9316-0.4171-1.438-0.3437a0.6314 0.6314 0 0 0 -0.0312 0l-2.938 0.5313-1.781-9.625a0.6314 0.6314 0 0 0 0 -0.031c-0.1188-0.5133-0.4761-0.9166-0.9062-1.188-0.4295-0.2698-0.9636-0.423-1.5-0.3438a0.6314 0.6314 0 0 0 -0.0312 0z" style="fill:url(#a)"/><path d="m487.6 1306c-0.5264 0.1141-0.993 0.4548-1.281 0.875-0.2878 0.4195-0.3921 0.9313-0.3125 1.438a0.6314 0.6314 0 0 0 0 0.031l6.812 36.53a0.6314 0.6314 0 0 0 0 0.062v0.031a0.6314 0.6314 0 0 0 0 0.031c0.1136 0.5276 0.4553 0.9933 0.875 1.281 0.4195 0.2879 0.9313 0.3922 1.438 0.3126a0.6314 0.6314 0 0 0 0.0312 0c0.5315-0.1143 1.034-0.4027 1.344-0.8438 0.3102-0.4413 0.3939-0.9929 0.3125-1.5a0.6314 0.6314 0 0 0 0 -0.031l-1.094-6.031 4-5.844 12.34 10.28 0.0625 0.062v-0.031c0.218 0.2227 0.4851 0.4104 0.8125 0.4688 0.3265 0.058 0.6256 0.024 0.875-0.031 0.1474-0.028 0.3338-0.083 0.5625-0.1876 0.2442-0.1127 0.4586-0.2829 0.625-0.4687a0.6314 0.6314 0 0 0 0.0625 -0.061c0.2879-0.431 0.4375-0.923 0.375-1.438-0.063-0.5174-0.3483-0.9942-0.75-1.344l-12.66-10.62 8.344-12.16c0.3082-0.4716 0.4052-1.033 0.3125-1.531-0.097-0.5204-0.4342-0.9652-0.875-1.25-0.4416-0.2924-0.9789-0.4407-1.5-0.3437-0.5096 0.094-0.9385 0.4054-1.25 0.8437a0.6314 0.6314 0 0 0 -0.0312 0.031l-12.38 18-4.656-24.97c-0.1116-0.5228-0.4428-0.9919-0.875-1.281-0.4326-0.2896-0.9642-0.3976-1.5-0.3125a0.6314 0.6314 0 0 0 -0.0312 0z" style="fill:url(#a)"/><path d="m526.8 1311c-3.921 0.8354-7.015 2.909-9.127 6.104-2.11 3.194-2.843 6.876-2.186 10.94 0.8409 3.979 2.847 7.128 5.961 9.335 3.117 2.209 6.709 3.048 10.67 2.419a0.6314 0.6314 0 0 0 0.0439 -0.01c2.448-0.4824 4.578-1.508 6.38-3.05 1.794-1.535 3.191-3.44 4.077-5.664a0.6314 0.6314 0 0 0 -8e-3 -0.044c0.1657-0.497 0.1649-1.053-0.0584-1.533-0.2229-0.4791-0.6464-0.7993-1.098-1.022a0.6314 0.6314 0 0 0 -0.0521 -0.036c-0.4401-0.1555-0.9244-0.2021-1.41-0.01-0.5165 0.2052-0.9061 0.6704-1.101 1.159-0.6253 1.641-1.602 2.981-2.918 4.085-1.309 1.098-2.813 1.821-4.547 2.163-2.772 0.4464-5.24-0.07-7.466-1.562-2.051-1.374-3.43-3.324-4.23-5.888l21.86-4.069c0.4987-0.1074 0.9708-0.3573 1.271-0.7361 0.311-0.3932 0.4444-0.9445 0.3612-1.475a0.6314 0.6314 0 0 0 -8e-3 -0.044l-0.0163-0.088a0.6314 0.6314 0 0 0 -0.0163 -0.088 0.6314 0.6314 0 0 0 -0.0163 -0.088c-1.076-3.736-3.155-6.649-6.154-8.663-2.253-1.514-4.734-2.3-7.429-2.341-0.8984-0.014-1.837 0.047-2.778 0.1993zm0.6915 3.958 0.0439-0.01c2.454-0.4021 4.687-0.017 6.762 1.194 1.854 1.08 3.147 2.692 4.105 4.731l-19.09 3.554c0.1916-2.282 0.9063-4.244 2.259-5.915 1.508-1.864 3.436-3.041 5.923-3.555z" style="fill:url(#a)"/><path d="m476.2 1320c-0.8426 0.01-1.708 0.095-2.562 0.25-4.143 0.8713-7.39 2.94-9.656 6.125-2.266 3.185-3.121 6.866-2.469 10.94a0.6314 0.6314 0 0 0 0 0.031c0.8656 4.085 2.984 7.298 6.25 9.469 3.265 2.17 7.042 2.899 11.22 2.219a0.6314 0.6314 0 0 0 0.0312 0c1.703-0.3277 3.272-0.8927 4.719-1.719 1.441-0.8229 2.677-1.854 3.719-3.031 0.3648-0.4132 0.5875-0.9278 0.5625-1.469-0.0254-0.5488-0.309-1.046-0.7188-1.406a0.6314 0.6314 0 0 0 -0.0312 -0.031c-0.3764-0.2852-0.8257-0.4492-1.312-0.4374a0.6314 0.6314 0 0 0 -0.0312 0c-0.5188 0.015-0.9801 0.2613-1.344 0.625a0.6314 0.6314 0 0 0 -0.0312 0.031c-0.7988 0.8937-1.741 1.604-2.812 2.219-1.054 0.6045-2.189 1.04-3.438 1.281h-0.0312c-3.152 0.5043-5.892-0.032-8.281-1.625-2.389-1.593-3.858-3.84-4.5-6.844-2e-3 -0.011 2e-3 -0.021 0-0.031-0.4712-2.978 0.1215-5.549 1.781-7.906 1.664-2.364 3.959-3.866 7.094-4.531 1.258-0.2341 2.511-0.2534 3.719-0.062 1.211 0.1917 2.328 0.5812 3.406 1.156a0.6314 0.6314 0 0 0 0.0625 0c0.4762 0.2107 1.018 0.266 1.5 0.094 0.4465-0.1602 0.8338-0.4547 1.094-0.875a0.6314 0.6314 0 0 0 0.0312 -0.062c0.2528-0.4939 0.3104-1.052 0.1562-1.562-0.1538-0.5088-0.5158-0.9043-0.9688-1.125-1.459-0.7677-3.001-1.272-4.656-1.531-0.8291-0.1299-1.657-0.1974-2.5-0.1876z" style="fill:url(#a)"/><path d="m442.3 1326c-3.81 0.8237-6.814 2.856-8.863 6.055-2.047 3.196-2.749 6.892-2.107 10.88 0.836 3.953 2.813 7.106 5.873 9.351 3.063 2.247 6.56 3.115 10.41 2.512a0.6314 0.6314 0 0 0 0.0439 -0.01c3.836-0.8286 6.816-2.901 8.855-6.099 2.037-3.196 2.761-6.85 2.115-10.84a0.6314 0.6314 0 0 0 -8e-3 -0.044c-0.8322-3.953-2.771-7.068-5.821-9.316-2.293-1.69-4.855-2.588-7.626-2.667-0.9271-0.027-1.909 0.02-2.874 0.1718zm0.7272 3.906c0.678-0.1049 1.333-0.1591 1.972-0.1401 1.947 0.058 3.722 0.6708 5.395 1.902 2.219 1.634 3.645 3.934 4.286 6.922 0.4764 3.017 6e-3 5.597-1.48 7.905-1.486 2.308-3.516 3.75-6.231 4.339l-0.0439 0.01c-2.745 0.4266-5.149-0.1429-7.367-1.762-2.218-1.619-3.673-3.843-4.313-6.826-2e-3 -0.011 0.0377-0.042 0.0357-0.052-0.4768-3.018-0.0109-5.626 1.472-7.949 1.484-2.324 3.562-3.756 6.275-4.347z" style="fill:url(#a)"/><path d="m426.9 1329c-2.727 0.5912-4.982 1.796-6.656 3.594-1.31 1.407-2.258 2.912-3 4.469l-0.75-4.094c-0.1104-0.5097-0.3949-1.011-0.8438-1.312-0.4348-0.2924-0.9413-0.358-1.406-0.2813a0.6314 0.6314 0 0 0 -0.0312 0c-0.5137 0.1091-0.9939 0.3789-1.312 0.8126-0.3144 0.4279-0.4288 0.9754-0.3438 1.5a0.6314 0.6314 0 0 0 0 0.031l4.625 24.78c0.1076 0.5084 0.3963 0.9952 0.8438 1.281 0.4345 0.2783 0.9737 0.4062 1.531 0.3125a0.6314 0.6314 0 0 0 0.0312 0c0.504-0.1089 0.9452-0.4215 1.219-0.8125 0.2926-0.4179 0.3956-0.967 0.3125-1.5a0.6314 0.6314 0 0 0 0 -0.031l-2.25-12.09c-0.0195-0.088-0.0315-0.102-0.0312-0.062 2e-3 0.1178-6e-3 0.01 0.0312-0.125a0.6314 0.6314 0 0 0 0.0312 -0.062c0.0766-0.5988 0.2745-1.564 0.5938-2.844 0.3095-1.24 0.7939-2.544 1.469-3.969 0.6783-1.385 1.546-2.592 2.625-3.625 1.044-0.9998 2.379-1.686 4.062-2.031 0.4935-0.107 0.9816-0.4068 1.281-0.8438 0.2993-0.4362 0.3929-0.9573 0.3125-1.469a0.6314 0.6314 0 0 0 0 -0.031c-0.1081-0.5064-0.3832-1.01-0.8438-1.312-0.4475-0.2932-0.9728-0.3637-1.469-0.2813a0.6314 0.6314 0 0 0 -0.0312 0z" style="fill:url(#a)"/></g></g><g transform="rotate(15 123.2 1495)"><path transform="translate(278.9 781.7)" d="m451.3 198.6a98.49 98.49 0 0 1 13.19 49.24" style="fill:none;stroke-linecap:round;stroke-width:5;stroke:url(#a)"/><path d="m727.4 1031c2.624 44.61-22.28 88.18-65.6 107.2-6.065 2.663-12.24 4.722-18.46 6.228 16.62 0.8814 33.67-1.986 49.95-9.132 42.38-18.61 67.15-60.7 65.75-104.3-10.4-1.34-21.02-1.384-31.64 1e-4z" style="fill:url(#b);stroke-linecap:round;stroke-linejoin:round;stroke-width:5;stroke:url(#a)"/></g></g></g></svg>
